<?xml version="1.0" encoding="UTF-8" standalone="no"?>
<svg
   xmlns:sketch="http://www.bohemiancoding.com/sketch/ns"
   xmlns:dc="http://purl.org/dc/elements/1.1/"
   xmlns:cc="http://creativecommons.org/ns#"
   xmlns:rdf="http://www.w3.org/1999/02/22-rdf-syntax-ns#"
   xmlns:svg="http://www.w3.org/2000/svg"
   xmlns="http://www.w3.org/2000/svg"
   xmlns:sodipodi="http://sodipodi.sourceforge.net/DTD/sodipodi-0.dtd"
   xmlns:inkscape="http://www.inkscape.org/namespaces/inkscape"
   width="310px"
   height="81px"
   viewBox="0 0 310 81"
   version="1.1"
   id="svg1867"
   sodipodi:docname="puzzle_tagline_white_rgb.svg"
   inkscape:version="1.0.1 (0767f8302a, 2020-10-17)">
  <metadata
     id="metadata1871">
    <rdf:RDF>
      <cc:Work
         rdf:about="">
        <dc:format>image/svg+xml</dc:format>
        <dc:type
           rdf:resource="http://purl.org/dc/dcmitype/StillImage" />
        <dc:title>logo_tagline</dc:title>
      </cc:Work>
    </rdf:RDF>
  </metadata>
  <sodipodi:namedview
     pagecolor="#ffffff"
     bordercolor="#666666"
     borderopacity="1"
     objecttolerance="10"
     gridtolerance="10"
     guidetolerance="10"
     inkscape:pageopacity="0"
     inkscape:pageshadow="2"
     inkscape:window-width="1848"
     inkscape:window-height="1016"
     id="namedview1869"
     showgrid="false"
     inkscape:zoom="2.0335381"
     inkscape:cx="187.86143"
     inkscape:cy="37.646567"
     inkscape:window-x="72"
     inkscape:window-y="27"
     inkscape:window-maximized="1"
     inkscape:current-layer="svg1867" />
  <!-- Generator: Sketch 3.0.3 (7891) - http://www.bohemiancoding.com/sketch -->
  <title
     id="title1857">logo_tagline</title>
  <desc
     id="desc1859">Created with Sketch.</desc>
  <defs
     id="defs1861" />
  <g
     id="Page-1"
     stroke="none"
     stroke-width="1"
     fill="none"
     fill-rule="evenodd"
     sketch:type="MSPage">
    <g
       id="logo_tagline"
       sketch:type="MSLayerGroup"
       transform="translate(0.000000, 1.000000)">
      <path
         id="Fill-1"
         d="M 40.013672 0.72851562 C 29.77304 0.72833924 19.533273 4.6316238 11.720703 12.441406 C -3.9072595 28.063088 -3.9072595 53.390037 11.720703 69.011719 C 27.34796 84.6334 52.682043 84.6334 68.308594 69.011719 C 83.934439 53.390037 83.935851 28.064499 68.308594 12.441406 C 60.495671 4.6323293 50.254303 0.72869201 40.013672 0.72851562 z M 24.595703 22.314453 L 44.275391 22.314453 L 42.960938 26.236328 C 42.960938 26.236328 44.564031 22.314453 55.410156 22.314453 C 55.410156 22.314453 66.529104 22.363152 65.222656 26.257812 C 63.918326 30.150357 59.724609 41.830078 59.724609 41.830078 C 58.321466 45.636545 50.110937 45.603558 38.964844 45.636719 C 38.964844 45.636719 46.16733 44.619153 48.248047 40.599609 C 50.330175 36.582182 52.783203 28.441406 52.783203 28.441406 C 41.694281 28.439995 40.705078 32.322266 40.705078 32.322266 C 40.705078 32.322266 33.696526 51.912925 31.197266 59.140625 C 11.778417 59.140625 14.882812 49.552734 14.882812 49.552734 L 24.595703 22.314453 z M 298.16992 22.314453 C 294.67406 22.314453 291.83611 23.433314 289.65234 25.669922 C 287.46717 27.906529 286.37695 30.797633 286.37695 34.34375 L 286.37695 40.470703 C 286.37695 44.030225 287.51192 46.924745 289.7832 49.154297 C 292.05449 51.383849 295.00497 52.498047 298.63281 52.498047 C 302.24725 52.498047 305.00269 51.592572 306.90625 49.779297 C 308.80628 47.964611 309.82613 45.339969 309.96094 41.900391 L 309.91992 41.779297 L 303.28711 41.779297 C 303.19394 43.686411 302.80377 45.077153 302.11914 45.949219 C 301.4338 46.822695 300.2724 47.261719 298.63281 47.261719 C 296.93888 47.261719 295.60758 46.636961 294.64062 45.386719 C 293.67296 44.138593 293.18945 42.499172 293.18945 40.470703 L 293.18945 34.304688 C 293.18945 32.289624 293.63374 30.661156 294.51953 29.417969 C 295.40673 28.175487 296.6235 27.554688 298.16992 27.554688 C 299.99584 27.554688 301.29009 28.017508 302.04883 28.945312 C 302.80828 29.871 303.23355 31.288199 303.32812 33.195312 L 309.96094 33.195312 L 310 33.074219 C 309.7445 29.634641 308.63613 26.983543 306.67188 25.115234 C 304.71114 23.249043 301.87823 22.314453 298.16992 22.314453 z M 96.3125 22.738281 L 96.3125 52.076172 L 103.14648 52.076172 L 103.14648 42.021484 L 108.22656 42.021484 C 111.70619 42.021484 114.46787 41.138344 116.50977 39.373047 C 118.55378 37.606338 119.57617 35.277917 119.57617 32.388672 C 119.57617 29.514243 118.55378 27.187775 116.50977 25.40625 C 114.46787 23.626842 111.70619 22.738281 108.22656 22.738281 L 96.3125 22.738281 z M 122.29688 22.738281 L 122.29688 41.960938 C 122.29687 45.306677 123.41418 47.898737 125.64453 49.740234 C 127.87558 51.579615 130.81117 52.498047 134.45312 52.498047 C 138.05344 52.498047 140.96616 51.579615 143.18945 49.740234 C 145.41345 47.898737 146.52539 45.306677 146.52539 41.960938 L 146.52539 22.738281 L 139.69141 22.738281 L 139.69141 41.960938 C 139.69141 43.774212 139.23899 45.110632 138.33203 45.970703 C 137.42436 46.830069 136.13224 47.261719 134.45312 47.261719 C 132.75919 47.261719 131.44821 46.826653 130.52148 45.960938 C 129.59476 45.094517 129.13086 43.762218 129.13086 41.960938 L 129.13086 22.738281 L 122.29688 22.738281 z M 149.15039 22.738281 L 149.15039 27.976562 L 162.33398 27.976562 L 149.21094 49.013672 L 149.21094 52.076172 L 170.96094 52.076172 L 170.96094 46.837891 L 157.5957 46.837891 L 170.78125 25.679688 L 170.78125 22.738281 L 149.15039 22.738281 z M 173.0332 22.738281 L 173.0332 27.976562 L 186.2168 27.976562 L 173.09375 49.013672 L 173.09375 52.076172 L 194.84375 52.076172 L 194.84375 46.837891 L 181.47852 46.837891 L 194.66211 25.679688 L 194.66211 22.738281 L 173.0332 22.738281 z M 197.39648 22.738281 L 197.39648 52.076172 L 216.86914 52.076172 L 216.86914 46.837891 L 204.23242 46.837891 L 204.23242 22.738281 L 197.39648 22.738281 z M 219.23633 22.738281 L 219.23633 52.076172 L 239.63477 52.076172 L 239.63477 46.837891 L 226.06836 46.837891 L 226.06836 39.523438 L 237.58008 39.523438 L 237.58008 34.283203 L 226.06836 34.283203 L 226.06836 27.976562 L 239.67578 27.976562 L 239.67578 22.738281 L 219.23633 22.738281 z M 253.46094 22.738281 L 253.46094 52.076172 L 260.25391 52.076172 L 260.25391 22.738281 L 253.46094 22.738281 z M 262.79883 22.738281 L 262.79883 27.976562 L 270.47852 27.976562 L 270.47852 52.076172 L 277.31055 52.076172 L 277.31055 27.976562 L 285.05273 27.976562 L 285.05273 22.738281 L 262.79883 22.738281 z M 103.14648 27.976562 L 108.22656 27.976562 C 109.70382 27.976563 110.83012 28.392055 111.60156 29.224609 C 112.37442 30.058575 112.75977 31.125823 112.75977 32.429688 C 112.75977 33.706741 112.37442 34.751654 111.60156 35.564453 C 110.83012 36.377958 109.70382 36.78125 108.22656 36.78125 L 103.14648 36.78125 L 103.14648 27.976562 z M 181.14648 58.660156 C 180.36445 58.660156 179.75455 58.887256 179.31836 59.34375 C 178.88147 59.798833 178.66406 60.443378 178.66406 61.277344 L 178.66406 62.269531 L 177.44141 62.269531 L 177.44141 63.326172 L 178.66406 63.326172 L 178.66406 70.097656 L 180.08984 70.097656 L 180.08984 63.326172 L 181.71875 63.326172 L 181.71875 62.269531 L 180.08984 62.269531 L 180.08984 61.277344 C 180.08984 60.805328 180.19001 60.444915 180.39258 60.197266 C 180.59515 59.948205 180.9053 59.824219 181.32031 59.824219 C 181.45512 59.824219 181.58351 59.830181 181.70703 59.845703 C 181.82914 59.859109 181.93467 59.877434 182.02148 59.896484 L 182.19531 58.810547 C 181.99275 58.762569 181.80915 58.72603 181.64258 58.699219 C 181.47601 58.673113 181.31023 58.660156 181.14648 58.660156 z M 104.26172 58.810547 L 104.26172 70.097656 L 105.6875 70.097656 L 105.6875 64.316406 C 105.89501 63.998201 106.15933 63.746108 106.48047 63.560547 C 106.8009 63.374986 107.15873 63.283203 107.55469 63.283203 C 108.10451 63.283203 108.51949 63.435813 108.79688 63.744141 C 109.07426 64.053174 109.21289 64.531446 109.21289 65.177734 L 109.21289 70.097656 L 110.63867 70.097656 L 110.63867 65.191406 C 110.63867 64.150008 110.40529 63.378602 109.93945 62.876953 C 109.47362 62.375304 108.82254 62.125 107.98828 62.125 C 107.51045 62.125 107.07673 62.229198 106.68359 62.439453 C 106.29046 62.649003 105.95782 62.942299 105.6875 63.318359 L 105.6875 58.810547 L 104.26172 58.810547 z M 137.52539 58.810547 L 137.52539 60.265625 L 138.95117 60.265625 L 138.95117 58.810547 L 137.52539 58.810547 z M 205.0332 58.810547 L 205.0332 70.097656 L 206.45898 70.097656 L 206.45898 64.316406 C 206.66649 63.998201 206.93081 63.746108 207.25195 63.560547 C 207.57239 63.374986 207.93021 63.283203 208.32617 63.283203 C 208.876 63.283203 209.28902 63.435813 209.56641 63.744141 C 209.84379 64.053174 209.98438 64.531446 209.98438 65.177734 L 209.98438 70.097656 L 211.4082 70.097656 L 211.4082 65.191406 C 211.4082 64.150008 211.17677 63.378602 210.71094 62.876953 C 210.24511 62.375304 209.59403 62.125 208.75977 62.125 C 208.28193 62.125 207.84626 62.229198 207.45312 62.439453 C 207.05999 62.649003 206.72931 62.942299 206.45898 63.318359 L 206.45898 58.810547 L 205.0332 58.810547 z M 224.93945 58.8125 L 224.93945 70.097656 L 226.10352 70.097656 L 226.27734 69.0625 C 226.52861 69.454083 226.84472 69.748841 227.22656 69.949219 C 227.60699 70.148891 228.05632 70.25 228.57227 70.25 C 229.52299 70.25 230.27044 69.902381 230.8125 69.210938 C 231.35597 68.518083 231.62695 67.60865 231.62695 66.480469 L 231.62695 66.328125 C 231.62695 65.06871 231.35635 64.054374 230.81641 63.283203 C 230.27505 62.511327 229.52272 62.125 228.55859 62.125 C 228.07018 62.125 227.6442 62.216947 227.2793 62.400391 C 226.91581 62.583129 226.61156 62.847474 226.36523 63.195312 L 226.36523 58.8125 L 224.93945 58.8125 z M 161.88867 59.564453 L 161.88867 70.097656 L 163.32227 70.097656 L 163.32227 59.564453 L 161.88867 59.564453 z M 164.91406 59.564453 L 164.91406 60.685547 L 168.29297 60.685547 L 168.29297 70.097656 L 169.71875 70.097656 L 169.71875 60.685547 L 173.10547 60.685547 L 173.10547 59.564453 L 164.91406 59.564453 z M 200.55078 60.380859 L 200.55078 62.269531 L 199.30469 62.269531 L 199.30469 63.326172 L 200.55078 63.326172 L 200.55078 68.078125 C 200.55078 68.826718 200.72214 69.37536 201.06445 69.724609 C 201.40677 70.074564 201.8685 70.248047 202.44727 70.248047 C 202.65477 70.248047 202.86102 70.221049 203.06641 70.166016 C 203.27109 70.110277 203.42538 70.039908 203.53125 69.953125 L 203.34375 68.976562 C 203.26611 69.00549 203.17889 69.029778 203.08008 69.048828 C 202.98127 69.068584 202.89047 69.078125 202.80859 69.078125 C 202.55733 69.078125 202.35558 69.003093 202.20312 68.853516 C 202.05138 68.703938 201.97656 68.445719 201.97656 68.078125 L 201.97656 63.326172 L 203.46094 63.326172 L 203.46094 62.269531 L 201.97656 62.269531 L 201.97656 60.380859 L 200.55078 60.380859 z M 241.66016 60.380859 L 241.66016 62.269531 L 240.41602 62.269531 L 240.41602 63.326172 L 241.66016 63.326172 L 241.66016 68.078125 C 241.66016 68.826718 241.83151 69.37536 242.17383 69.724609 C 242.51614 70.074564 242.97788 70.248047 243.55664 70.248047 C 243.76415 70.248047 243.97039 70.221049 244.17578 70.166016 C 244.38047 70.110277 244.53671 70.039908 244.64258 69.953125 L 244.45312 68.976562 C 244.37549 69.00549 244.28827 69.029778 244.18945 69.048828 C 244.09064 69.068584 243.99984 69.078125 243.91797 69.078125 C 243.6667 69.078125 243.46495 69.003093 243.3125 68.853516 C 243.16075 68.703938 243.08594 68.445719 243.08594 68.078125 L 243.08594 63.326172 L 244.57031 63.326172 L 244.57031 62.269531 L 243.08594 62.269531 L 243.08594 60.380859 L 241.66016 60.380859 z M 246.96094 60.380859 L 246.96094 62.269531 L 245.71484 62.269531 L 245.71484 63.326172 L 246.96094 63.326172 L 246.96094 68.078125 C 246.96094 68.826718 247.13229 69.37536 247.47461 69.724609 C 247.81693 70.074564 248.27866 70.248047 248.85742 70.248047 C 249.06493 70.248047 249.27117 70.221049 249.47656 70.166016 C 249.68125 70.110277 249.83554 70.039908 249.94141 69.953125 L 249.75391 68.976562 C 249.67627 69.00549 249.58905 69.029778 249.49023 69.048828 C 249.39142 69.068584 249.30062 69.078125 249.21875 69.078125 C 248.96748 69.078125 248.76574 69.003093 248.61328 68.853516 C 248.46153 68.703938 248.38672 68.445719 248.38672 68.078125 L 248.38672 63.326172 L 249.87109 63.326172 L 249.87109 62.269531 L 248.38672 62.269531 L 248.38672 60.380859 L 246.96094 60.380859 z M 99.533203 62.125 C 98.398972 62.125 97.52941 62.497827 96.923828 63.242188 C 96.318246 63.987959 96.015625 64.91718 96.015625 66.03125 L 96.015625 66.335938 C 96.015625 67.459886 96.316458 68.39377 96.919922 69.136719 C 97.52268 69.878962 98.394032 70.25 99.533203 70.25 C 100.36253 70.25 101.09021 69.986576 101.71484 69.460938 C 102.34019 68.935299 102.63923 68.335372 102.61523 67.660156 L 102.60156 67.615234 L 101.32031 67.615234 C 101.32031 68.040684 101.1398 68.399307 100.78125 68.691406 C 100.42129 68.9828 100.00539 69.128906 99.533203 69.128906 C 98.780814 69.128906 98.2441 68.862772 97.925781 68.330078 C 97.606757 67.79809 97.447266 67.13213 97.447266 66.332031 L 97.447266 66.027344 C 97.447266 65.247 97.60784 64.588956 97.929688 64.052734 C 98.250124 63.515102 98.784343 63.246094 99.533203 63.246094 C 100.04844 63.246094 100.47513 63.412908 100.8125 63.748047 C 101.15058 64.083891 101.32031 64.49109 101.32031 64.96875 L 102.60742 64.96875 L 102.62305 64.923828 C 102.6421 64.138546 102.36018 63.475296 101.7793 62.935547 C 101.19701 62.395092 100.44934 62.125 99.533203 62.125 z M 115.69922 62.125 C 114.80143 62.125 114.06801 62.361263 113.50195 62.833984 C 112.93448 63.306706 112.66637 63.827807 112.69531 64.396484 L 112.70898 64.439453 L 114.07031 64.439453 C 114.07031 64.11137 114.21398 63.831195 114.50195 63.597656 C 114.78851 63.363412 115.16037 63.246094 115.61914 63.246094 C 116.13014 63.246094 116.52714 63.381032 116.80664 63.648438 C 117.08685 63.916548 117.22656 64.277718 117.22656 64.736328 L 117.22656 65.509766 L 115.67773 65.509766 C 114.6402 65.509766 113.81847 65.721904 113.21289 66.144531 C 112.60731 66.565747 112.30469 67.151255 112.30469 67.898438 C 112.30469 68.631509 112.51901 69.20677 112.94531 69.623047 C 113.37303 70.040735 113.99339 70.248047 114.80859 70.248047 C 115.30054 70.248047 115.76119 70.122435 116.1875 69.869141 C 116.61522 69.616552 116.96118 69.301842 117.22656 68.925781 C 117.2315 69.109225 117.24732 69.291329 117.27344 69.472656 C 117.30026 69.652573 117.33606 69.861296 117.38477 70.097656 L 118.85547 70.097656 C 118.77712 69.847184 118.72425 69.591133 118.69531 69.330078 C 118.66637 69.069729 118.65234 68.798931 118.65234 68.519531 L 118.65234 64.75 C 118.65234 63.901924 118.38174 63.252878 117.8418 62.802734 C 117.30044 62.35118 116.58642 62.125 115.69922 62.125 z M 124.38086 62.125 C 123.87903 62.125 123.4329 62.239445 123.03906 62.46875 C 122.64663 62.69735 122.31904 63.018728 122.05859 63.433594 L 121.95703 62.269531 L 120.68359 62.269531 L 120.68359 70.097656 L 122.10938 70.097656 L 122.10938 64.390625 C 122.29712 64.048431 122.54974 63.776386 122.86523 63.578125 C 123.18144 63.38057 123.5443 63.283203 123.95508 63.283203 C 124.51408 63.283203 124.92998 63.427519 125.20312 63.716797 C 125.47486 64.006074 125.61133 64.49622 125.61133 65.185547 L 125.61133 70.097656 L 127.03711 70.097656 L 127.03711 65.15625 C 127.03711 64.124729 126.8048 63.361781 126.3418 62.867188 C 125.87879 62.373299 125.225 62.125 124.38086 62.125 z M 131.85352 62.125 C 130.88444 62.125 130.12279 62.511327 129.57227 63.283203 C 129.02244 64.05508 128.74805 65.06871 128.74805 66.328125 L 128.74805 66.480469 C 128.74805 67.604417 129.02244 68.512766 129.57227 69.207031 C 130.12279 69.902002 130.87729 70.25 131.83789 70.25 C 132.3016 70.25 132.71122 70.167216 133.06836 70 C 133.42479 69.834195 133.73278 69.58519 133.98828 69.257812 L 133.98828 70.140625 C 133.98828 70.786913 133.83058 71.267896 133.51367 71.583984 C 133.19818 71.900073 132.69256 72.058594 131.99805 72.058594 C 131.64585 72.058594 131.28857 72.013434 130.92578 71.923828 C 130.56511 71.834928 130.2555 71.718857 130 71.574219 L 129.63867 72.679688 C 129.97111 72.858193 130.35678 72.999094 130.79297 73.103516 C 131.22986 73.206527 131.63552 73.257812 132.01172 73.257812 C 133.11207 73.257812 133.95465 72.990758 134.53906 72.453125 C 135.12276 71.914787 135.41406 71.143923 135.41406 70.140625 L 135.41406 62.269531 L 134.27734 62.269531 L 134.10352 63.291016 C 133.85295 62.91425 133.53901 62.625453 133.16211 62.425781 C 132.78591 62.225404 132.3504 62.125 131.85352 62.125 z M 144.76172 62.125 C 144.25989 62.125 143.81376 62.239445 143.41992 62.46875 C 143.02749 62.69735 142.6999 63.018728 142.43945 63.433594 L 142.33789 62.269531 L 141.06445 62.269531 L 141.06445 70.097656 L 142.49023 70.097656 L 142.49023 64.390625 C 142.67798 64.048431 142.9306 63.776386 143.24609 63.578125 C 143.56229 63.38057 143.92516 63.283203 144.33594 63.283203 C 144.89494 63.283203 145.31084 63.427519 145.58398 63.716797 C 145.85572 64.006074 145.99219 64.49622 145.99219 65.185547 L 145.99219 70.097656 L 147.41797 70.097656 L 147.41797 65.15625 C 147.41797 64.124729 147.18567 63.361781 146.72266 62.867188 C 146.25965 62.373299 145.60586 62.125 144.76172 62.125 z M 152.23438 62.125 C 151.2653 62.125 150.50561 62.511327 149.95508 63.283203 C 149.40526 64.05508 149.12891 65.06871 149.12891 66.328125 L 149.12891 66.480469 C 149.12891 67.604417 149.40526 68.512766 149.95508 69.207031 C 150.50561 69.902002 151.2601 70.25 152.2207 70.25 C 152.68442 70.25 153.09403 70.167216 153.45117 70 C 153.8076 69.834195 154.11364 69.58519 154.36914 69.257812 L 154.36914 70.140625 C 154.36914 70.786913 154.21144 71.267896 153.89453 71.583984 C 153.57904 71.900073 153.07342 72.058594 152.37891 72.058594 C 152.02671 72.058594 151.67138 72.013434 151.30859 71.923828 C 150.94793 71.834928 150.63636 71.718857 150.38086 71.574219 L 150.01953 72.679688 C 150.35197 72.858193 150.73764 72.999094 151.17383 73.103516 C 151.61072 73.206527 152.01834 73.257812 152.39453 73.257812 C 153.49488 73.257812 154.33551 72.990758 154.91992 72.453125 C 155.50362 71.914787 155.79492 71.143923 155.79492 70.140625 L 155.79492 62.269531 L 154.6582 62.269531 L 154.48438 63.291016 C 154.23381 62.91425 153.92182 62.625453 153.54492 62.425781 C 153.16873 62.225404 152.73126 62.125 152.23438 62.125 z M 186.08594 62.125 C 185.00958 62.125 184.15801 62.49929 183.53125 63.25 C 182.90379 63.999299 182.58984 64.954219 182.58984 66.111328 L 182.58984 66.271484 C 182.58984 67.433533 182.90558 68.385794 183.53516 69.130859 C 184.16474 69.875925 185.01902 70.25 186.09961 70.25 C 187.1802 70.25 188.03465 69.877715 188.66211 69.134766 C 189.28957 68.392522 189.60352 67.438471 189.60352 66.271484 L 189.60352 66.111328 C 189.60352 64.949985 189.28778 63.993982 188.6582 63.246094 C 188.02862 62.498912 187.17147 62.125 186.08594 62.125 z M 194.6875 62.125 C 194.2619 62.125 193.88788 62.239066 193.5625 62.464844 C 193.23642 62.692032 192.96186 63.007121 192.74023 63.412109 L 192.60352 62.269531 L 191.33008 62.269531 L 191.33008 70.097656 L 192.75586 70.097656 L 192.75586 64.505859 C 192.89561 64.182715 193.09394 63.930458 193.35156 63.751953 C 193.60989 63.573448 193.92849 63.484375 194.30469 63.484375 L 195.03516 63.529297 L 195.23047 62.203125 C 195.16836 62.184781 195.08693 62.166618 194.99023 62.150391 C 194.89425 62.132752 194.79266 62.125 194.6875 62.125 z M 216.44922 62.125 C 215.54226 62.125 214.75791 62.494248 214.09375 63.234375 C 213.431 63.974502 213.09961 64.903508 213.09961 66.017578 L 213.09961 66.335938 C 213.09961 67.493752 213.42076 68.434141 214.06445 69.160156 C 214.70885 69.886172 215.57554 70.25 216.66602 70.25 C 217.31677 70.25 217.87396 70.157512 218.33203 69.972656 C 218.7901 69.787801 219.15925 69.557827 219.43945 69.28125 L 218.88086 68.353516 C 218.61548 68.594815 218.3017 68.784292 217.9375 68.921875 C 217.5733 69.058753 217.14808 69.128906 216.66602 69.128906 C 216.00468 69.128906 215.49131 68.886896 215.125 68.404297 C 214.75798 67.920287 214.56756 67.302739 214.55273 66.552734 L 214.57617 66.515625 L 219.65625 66.515625 L 219.65625 65.626953 C 219.65625 64.565799 219.38565 63.716488 218.8457 63.080078 C 218.30506 62.442962 217.50581 62.125 216.44922 62.125 z M 236.37305 62.125 C 235.46609 62.125 234.68174 62.494248 234.01758 63.234375 C 233.35483 63.974502 233.02344 64.903508 233.02344 66.017578 L 233.02344 66.335938 C 233.02344 67.493752 233.34459 68.434141 233.98828 69.160156 C 234.63268 69.886172 235.49937 70.25 236.58984 70.25 C 237.2406 70.25 237.79779 70.157512 238.25586 69.972656 C 238.71393 69.787801 239.08308 69.557827 239.36328 69.28125 L 238.80469 68.353516 C 238.5393 68.594815 238.22552 68.784292 237.86133 68.921875 C 237.49713 69.058753 237.07191 69.128906 236.58984 69.128906 C 235.9285 69.128906 235.41514 68.886896 235.04883 68.404297 C 234.68181 67.920287 234.49138 67.302739 234.47656 66.552734 L 234.5 66.515625 L 239.58008 66.515625 L 239.58008 65.626953 C 239.58008 64.565799 239.30947 63.716488 238.76953 63.080078 C 238.22888 62.442962 237.42964 62.125 236.37305 62.125 z M 254.23438 62.125 C 253.32741 62.125 252.54307 62.494248 251.87891 63.234375 C 251.21615 63.974502 250.88477 64.903508 250.88477 66.017578 L 250.88477 66.335938 C 250.88477 67.493752 251.20591 68.434141 251.84961 69.160156 C 252.49401 69.886172 253.36266 70.25 254.45312 70.25 C 255.10388 70.25 255.65912 70.157512 256.11719 69.972656 C 256.57526 69.787801 256.9444 69.557827 257.22461 69.28125 L 256.66602 68.353516 C 256.40063 68.594815 256.08685 68.784292 255.72266 68.921875 C 255.35846 69.058753 254.93519 69.128906 254.45312 69.128906 C 253.79179 69.128906 253.27647 68.886896 252.91016 68.404297 C 252.54314 67.920287 252.35271 67.302739 252.33789 66.552734 L 252.36133 66.515625 L 257.44141 66.515625 L 257.44141 65.626953 C 257.44141 64.565799 257.1708 63.716488 256.63086 63.080078 C 256.09021 62.442962 255.29097 62.125 254.23438 62.125 z M 262.45312 62.125 C 262.02752 62.125 261.65155 62.239066 261.32617 62.464844 C 261.00009 62.692032 260.72748 63.007121 260.50586 63.412109 L 260.36914 62.269531 L 259.09375 62.269531 L 259.09375 70.097656 L 260.51953 70.097656 L 260.51953 64.505859 C 260.65928 64.182715 260.85957 63.930458 261.11719 63.751953 C 261.37551 63.573448 261.69217 63.484375 262.06836 63.484375 L 262.79883 63.529297 L 262.99414 62.203125 C 262.93203 62.184781 262.85255 62.166618 262.75586 62.150391 C 262.65987 62.132752 262.55829 62.125 262.45312 62.125 z M 137.52539 62.269531 L 137.52539 70.097656 L 138.95117 70.097656 L 138.95117 62.269531 L 137.52539 62.269531 z M 186.08594 63.246094 C 186.77057 63.246094 187.29146 63.517812 187.64648 64.0625 C 188.0008 64.606483 188.17773 65.288979 188.17773 66.107422 L 188.17773 66.265625 C 188.17773 67.094652 188.00063 67.780021 187.64844 68.318359 C 187.29624 68.858814 186.78001 69.128906 186.09961 69.128906 C 185.41004 69.128906 184.8911 68.858814 184.54102 68.318359 C 184.19164 67.780021 184.01562 67.094652 184.01562 66.265625 L 184.01562 66.107422 C 184.01563 65.288979 184.19164 64.606482 184.54102 64.0625 C 184.8911 63.517812 185.40554 63.246094 186.08594 63.246094 z M 216.44922 63.246094 C 217.03786 63.246094 217.48199 63.433944 217.78125 63.808594 C 218.08051 64.183243 218.23047 64.649643 218.23047 65.207031 L 218.23047 65.394531 L 214.61719 65.394531 L 214.60547 65.359375 C 214.6817 64.754009 214.88848 64.249117 215.22656 63.847656 C 215.56394 63.446196 215.97139 63.246094 216.44922 63.246094 z M 236.37305 63.246094 C 236.96169 63.246094 237.40582 63.433944 237.70508 63.808594 C 238.00434 64.183243 238.1543 64.649643 238.1543 65.207031 L 238.1543 65.394531 L 234.54102 65.394531 L 234.5293 65.359375 C 234.60552 64.754009 234.81231 64.249117 235.15039 63.847656 C 235.48777 63.446196 235.89522 63.246094 236.37305 63.246094 z M 254.23438 63.246094 C 254.82302 63.246094 255.26714 63.433944 255.56641 63.808594 C 255.86567 64.183243 256.01562 64.649643 256.01562 65.207031 L 256.01562 65.394531 L 252.4043 65.394531 L 252.39062 65.359375 C 252.46685 64.754009 252.67364 64.249117 253.01172 63.847656 C 253.34909 63.446196 253.75654 63.246094 254.23438 63.246094 z M 132.20703 63.283203 C 132.62205 63.283203 132.97716 63.380733 133.27148 63.576172 C 133.56581 63.77161 133.80548 64.034166 133.98828 64.367188 L 133.98828 67.970703 C 133.80054 68.327714 133.56087 68.604095 133.27148 68.798828 C 132.9821 68.994267 132.6232 69.091797 132.19336 69.091797 C 131.51296 69.091797 131.00697 68.851955 130.67383 68.375 C 130.34069 67.89734 130.17383 67.266456 130.17383 66.480469 L 130.17383 66.328125 C 130.17383 65.436304 130.34285 64.705396 130.68164 64.136719 C 131.01831 63.567336 131.52663 63.283203 132.20703 63.283203 z M 152.58984 63.283203 C 153.00486 63.283203 153.35802 63.380733 153.65234 63.576172 C 153.94667 63.77161 154.18634 64.034166 154.36914 64.367188 L 154.36914 67.970703 C 154.1814 68.327714 153.94172 68.604095 153.65234 68.798828 C 153.36296 68.994267 153.00405 69.091797 152.57422 69.091797 C 151.89382 69.091797 151.38783 68.851955 151.05469 68.375 C 150.72155 67.89734 150.55469 67.266456 150.55469 66.480469 L 150.55469 66.328125 C 150.55469 65.436304 150.72371 64.705396 151.0625 64.136719 C 151.39917 63.567336 151.90945 63.283203 152.58984 63.283203 z M 228.19531 63.283203 C 228.87077 63.283203 229.37406 63.565547 229.70508 64.132812 C 230.0354 64.698667 230.20117 65.431365 230.20117 66.328125 L 230.20117 66.480469 C 230.20117 67.266456 230.03718 67.898045 229.70898 68.375 C 229.38078 68.85266 228.88075 69.091797 228.21094 69.091797 C 227.7564 69.091797 227.38042 68.982936 227.08398 68.765625 C 226.78684 68.548314 226.54874 68.24922 226.36523 67.863281 L 226.36523 64.46875 C 226.5438 64.107506 226.7819 63.818004 227.08398 63.603516 C 227.38536 63.389027 227.7563 63.283203 228.19531 63.283203 z M 115.625 66.472656 L 117.22656 66.472656 L 117.22656 67.742188 C 117.10093 68.084381 116.82908 68.387761 116.41406 68.652344 C 115.99975 68.916927 115.53352 69.048828 115.01758 69.048828 C 114.59268 69.048828 114.27332 68.947882 114.05664 68.746094 C 113.83925 68.544305 113.73047 68.269008 113.73047 67.921875 C 113.73047 67.533115 113.90361 67.194822 114.24805 66.90625 C 114.59319 66.617678 115.05118 66.472656 115.625 66.472656 z "
         transform="translate(0,-1)"
         style="fill:#ffffff" />
    </g>
  </g>
</svg>
